<?xml version="1.0" standalone="no"?>
<!DOCTYPE svg PUBLIC "-//W3C//DTD SVG 20010904//EN"
 "http://www.w3.org/TR/2001/REC-SVG-20010904/DTD/svg10.dtd">
<svg version="1.0" xmlns="http://www.w3.org/2000/svg"
 width="469.000000pt" height="175.000000pt" viewBox="0 0 469.000000 175.000000"
 preserveAspectRatio="xMidYMid meet">

<g transform="translate(0.000000,175.000000) scale(0.100000,-0.100000)"
fill="#000000" stroke="none">
<path d="M3933 1136 c4 -10 0 -14 -13 -11 -12 2 -17 -1 -14 -9 3 -8 15 -11 29
-8 21 3 23 7 14 23 -11 22 -24 26 -16 5z"/>
<path d="M3700 1111 c0 -5 5 -13 10 -16 6 -3 10 -2 10 4 0 5 -4 13 -10 16 -5
3 -10 2 -10 -4z"/>
<path d="M1786 831 c-7 -11 22 -23 35 -15 5 3 7 10 4 15 -8 12 -32 12 -39 0z"/>
<path d="M1995 831 c-6 -11 29 -33 39 -24 7 7 -12 33 -25 33 -4 0 -10 -4 -14
-9z"/>
<path d="M2205 830 c3 -5 13 -10 21 -10 8 0 12 5 9 10 -3 6 -13 10 -21 10 -8
0 -12 -4 -9 -10z"/>
<path d="M2387 834 c-12 -12 4 -24 30 -24 21 0 24 2 13 15 -13 16 -32 20 -43
9z"/>
<path d="M3206 833 c-11 -11 -6 -23 9 -23 8 0 15 4 15 9 0 13 -16 22 -24 14z"/>
<path d="M3796 831 c-9 -14 22 -34 40 -27 13 5 14 9 4 21 -14 17 -36 20 -44 6z"/>
<path d="M3951 820 c-41 -21 -30 -26 44 -22 37 3 55 8 55 17 0 29 -48 31 -99
5z"/>
<path d="M3395 820 c-3 -5 1 -10 9 -10 9 0 16 5 16 10 0 6 -4 10 -9 10 -6 0
-13 -4 -16 -10z"/>
<path d="M4174 819 c-8 -13 13 -29 39 -29 10 0 17 8 17 20 0 15 -7 20 -24 20
-14 0 -28 -5 -32 -11z"/>
</g>
</svg>
